<?xml version="1.0" standalone="no"?>
<!DOCTYPE svg PUBLIC "-//W3C//DTD SVG 20010904//EN"
 "http://www.w3.org/TR/2001/REC-SVG-20010904/DTD/svg10.dtd">
<svg version="1.0" xmlns="http://www.w3.org/2000/svg"
 width="384.000000pt" height="384.000000pt" viewBox="0 0 384.000000 384.000000"
 preserveAspectRatio="xMidYMid meet">
<metadata>
Created by potrace 1.11, written by Peter Selinger 2001-2013
</metadata>
<g transform="translate(0.000000,384.000000) scale(0.100000,-0.100000)"
fill="#000000" stroke="none">
<path d="M0 1920 l0 -1920 1920 0 1920 0 0 1920 0 1920 -1920 0 -1920 0 0
-1920z m3202 738 c-65 -117 -76 -131 -221 -273 -85 -82 -242 -245 -350 -361
l-196 -212 -53 -213 c-50 -205 -52 -222 -61 -413 -5 -109 -12 -200 -15 -203
-3 -3 -52 -2 -110 2 l-105 7 -10 31 c-6 18 -31 102 -56 186 -25 85 -48 157
-50 159 -3 3 -120 18 -262 35 l-258 30 -194 -39 -194 -39 -68 -184 c-38 -101
-71 -186 -74 -189 -4 -4 -217 16 -221 21 -1 1 -30 185 -63 408 l-62 405 57
210 c31 115 61 218 67 229 13 25 217 304 226 309 3 2 125 11 271 21 l265 16
298 80 298 80 306 -163 c169 -90 312 -164 319 -166 7 -2 83 36 169 84 l156 87
107 134 106 135 23 -46 23 -46 -68 -122z"/>
</g>
</svg>
